<svg width="0" height="0" class="hidden">
  <symbol version="1.1" id="star-svgrepo-com" xmlns="http://www.w3.org/2000/svg" xmlns:xlink="http://www.w3.org/1999/xlink" x="0px" y="0px" xml:space="preserve" viewBox="0 0 55.867 55.867">
    <path d="M55.818,21.578c-0.118-0.362-0.431-0.626-0.808-0.681L36.92,18.268L28.83,1.876c-0.168-0.342-0.516-0.558-0.896-0.558
	s-0.729,0.216-0.896,0.558l-8.091,16.393l-18.09,2.629c-0.377,0.055-0.689,0.318-0.808,0.681c-0.117,0.361-0.02,0.759,0.253,1.024
	l13.091,12.76l-3.091,18.018c-0.064,0.375,0.09,0.754,0.397,0.978c0.309,0.226,0.718,0.255,1.053,0.076l16.182-8.506l16.18,8.506
	c0.146,0.077,0.307,0.115,0.466,0.115c0.207,0,0.413-0.064,0.588-0.191c0.308-0.224,0.462-0.603,0.397-0.978l-3.09-18.017
	l13.091-12.761C55.838,22.336,55.936,21.939,55.818,21.578z"></path>
    <g></g>
    <g></g>
    <g></g>
    <g></g>
    <g></g>
    <g></g>
    <g></g>
    <g></g>
    <g></g>
    <g></g>
    <g></g>
    <g></g>
    <g></g>
    <g></g>
    <g></g>
  </symbol>
  <symbol version="1.1" id="magnifying-glass-svgrepo-com" xmlns="http://www.w3.org/2000/svg" xmlns:xlink="http://www.w3.org/1999/xlink" x="0px" y="0px" xml:space="preserve" viewBox="0 0 49.999 49.999">
    <g>
      <g>
        <path d="M48.681,42.295l-8.925-8.904c-0.045-0.045-0.098-0.078-0.145-0.11c-0.802,1.233-1.761,2.405-2.843,3.487
			c-1.081,1.082-2.255,2.041-3.501,2.845c0.044,0.046,0.077,0.1,0.122,0.144l8.907,8.924c1.763,1.76,4.626,1.758,6.383,0
			C50.438,46.921,50.439,44.057,48.681,42.295z"></path>
        <path d="M35.496,6.079C27.388-2.027,14.198-2.027,6.089,6.081c-8.117,8.106-8.118,21.306-0.006,29.415
			c8.112,8.105,21.305,8.105,29.413-0.001C43.604,27.387,43.603,14.186,35.496,6.079z M9.905,31.678
			C3.902,25.675,3.904,15.902,9.907,9.905c6.003-6.002,15.77-6.002,21.771-0.003c5.999,6,5.997,15.762,0,21.774
			C25.676,37.66,15.91,37.682,9.905,31.678z"></path>
        <path d="M14.18,22.464c-0.441-1.812-2.257-4.326-3.785-3.525c-1.211,0.618-0.87,3.452-0.299,5.128
			c2.552,7.621,11.833,9.232,12.798,8.268C23.843,31.387,15.928,29.635,14.18,22.464z"></path>
      </g>
    </g>
    <g></g>
    <g></g>
    <g></g>
    <g></g>
    <g></g>
    <g></g>
    <g></g>
    <g></g>
    <g></g>
    <g></g>
    <g></g>
    <g></g>
    <g></g>
    <g></g>
    <g></g>
  </symbol>
  <symbol version="1.1" id="location-svgrepo-com" xmlns="http://www.w3.org/2000/svg" xmlns:xlink="http://www.w3.org/1999/xlink" x="0px" y="0px" xml:space="preserve" viewBox="0 0 264.018 264.018">
    <g>
      <path d="M132.009,0c-42.66,0-77.366,34.706-77.366,77.366c0,11.634,2.52,22.815,7.488,33.24c0.1,0.223,0.205,0.442,0.317,0.661
		l58.454,113.179c2.146,4.154,6.431,6.764,11.106,6.764c4.676,0,8.961-2.609,11.106-6.764l58.438-113.148
		c0.101-0.195,0.195-0.392,0.285-0.591c5.001-10.455,7.536-21.67,7.536-33.341C209.375,34.706,174.669,0,132.009,0z
		 M132.009,117.861c-22.329,0-40.495-18.166-40.495-40.495c0-22.328,18.166-40.494,40.495-40.494s40.495,18.166,40.495,40.494
		C172.504,99.695,154.338,117.861,132.009,117.861z"></path>
      <path d="M161.81,249.018h-59.602c-4.143,0-7.5,3.357-7.5,7.5c0,4.143,3.357,7.5,7.5,7.5h59.602c4.143,0,7.5-3.357,7.5-7.5
		C169.31,252.375,165.952,249.018,161.81,249.018z"></path>
    </g>
    <g></g>
    <g></g>
    <g></g>
    <g></g>
    <g></g>
    <g></g>
    <g></g>
    <g></g>
    <g></g>
    <g></g>
    <g></g>
    <g></g>
    <g></g>
    <g></g>
    <g></g>
  </symbol>
  <symbol version="1.1" id="chat-svgrepo-com" xmlns="http://www.w3.org/2000/svg" xmlns:xlink="http://www.w3.org/1999/xlink" x="0px" y="0px" xml:space="preserve" viewBox="0 0 60 60">
    <g>
      <path d="M44.348,12.793H2.652C1.189,12.793,0,13.982,0,15.445v43.762l9.414-9.414h34.934c1.463,0,2.652-1.19,2.652-2.653V15.445
		C47,13.982,45.811,12.793,44.348,12.793z M10,35.777c-2.206,0-4-1.794-4-4s1.794-4,4-4s4,1.794,4,4S12.206,35.777,10,35.777z
		 M23,35.777c-2.206,0-4-1.794-4-4s1.794-4,4-4s4,1.794,4,4S25.206,35.777,23,35.777z M36,35.777c-2.206,0-4-1.794-4-4s1.794-4,4-4
		s4,1.794,4,4S38.206,35.777,36,35.777z"></path>
      <path d="M57.348,0.793H12.652C11.189,0.793,10,1.982,10,3.445v7.348h34.348c2.565,0,4.652,2.087,4.652,4.652v25.332h11V3.445
		C60,1.982,58.811,0.793,57.348,0.793z"></path>
    </g>
    <g></g>
    <g></g>
    <g></g>
    <g></g>
    <g></g>
    <g></g>
    <g></g>
    <g></g>
    <g></g>
    <g></g>
    <g></g>
    <g></g>
    <g></g>
    <g></g>
    <g></g>
  </symbol>
  <symbol version="1.1" id="key-svgrepo-com" xmlns="http://www.w3.org/2000/svg" xmlns:xlink="http://www.w3.org/1999/xlink" x="0px" y="0px" xml:space="preserve" viewBox="0 0 367.578 367.578">
    <path d="M281.541,97.751c0-53.9-43.851-97.751-97.751-97.751S86.038,43.851,86.038,97.751c0,44.799,30.294,82.652,71.472,94.159
	v144.668c0,4.026,1.977,9.1,4.701,12.065l14.514,15.798c1.832,1.993,4.406,3.136,7.065,3.136s5.233-1.143,7.065-3.136l14.514-15.798
	c2.724-2.965,4.701-8.039,4.701-12.065v-7.387l14.592-9.363c2.564-1.646,4.035-4.164,4.035-6.909c0-2.744-1.471-5.262-4.036-6.907
	l-14.591-9.363v-0.207l14.592-9.363c2.564-1.646,4.035-4.164,4.035-6.909c0-2.744-1.471-5.262-4.036-6.907l-14.591-9.363v-0.207
	l14.592-9.363c2.564-1.646,4.035-4.164,4.035-6.908c0-2.745-1.471-5.263-4.036-6.909l-14.591-9.363V191.91
	C251.246,180.403,281.541,142.551,281.541,97.751z M183.789,104.948c-20.985,0-37.996-17.012-37.996-37.996
	s17.012-37.996,37.996-37.996s37.996,17.012,37.996,37.996S204.774,104.948,183.789,104.948z"></path>
    <g></g>
    <g></g>
    <g></g>
    <g></g>
    <g></g>
    <g></g>
    <g></g>
    <g></g>
    <g></g>
    <g></g>
    <g></g>
    <g></g>
    <g></g>
    <g></g>
    <g></g>
  </symbol>
  <symbol fill="none" xmlns="http://www.w3.org/2000/svg" viewBox="0 0 48 48" id="right-svgrepo-com">
    <rect width="48" height="48" fill="white" fill-opacity="0.01"></rect>
    <path d="M19 12L31 24L19 36" stroke="black" stroke-width="4" stroke-linecap="round" stroke-linejoin="round"></path>
  </symbol>
  <symbol version="1.1" id="banner-arrow-up-svgrepo-com" xmlns="http://www.w3.org/2000/svg" xmlns:xlink="http://www.w3.org/1999/xlink" x="0px" y="0px" xml:space="preserve" viewBox="0 0 1792 1792">
    <path d="M896,0l388.4,235.9V1792L896,1553.7L507.6,1792V235.5L896,0z"></path>
  </symbol>
  <symbol version="1.1" id="house-svgrepo-com" xmlns="http://www.w3.org/2000/svg" xmlns:xlink="http://www.w3.org/1999/xlink" x="0px" y="0px" xml:space="preserve" viewBox="0 0 296.096 296.096">
    <g>
      <path d="M101.15,175.142c6.966,0,14.634,0.68,21.634,1.966v-20.969h51v37.424c6,2.203,10.381,4.579,14.494,7.567
		c7.797,5.664,12.082,13.099,12.339,21.254c9.925-2.345,19.028-6.321,26.905-11.737c2.846-1.956,6.262-3.668,8.262-5.137v-58.243
		L148.047,49.23l-89.263,98.628v35.247c6-1.521,11.468-3.156,17.806-4.884C84.086,176.178,92.405,175.142,101.15,175.142z"></path>
      <polygon points="148.446,25.313 247.63,136.139 270.251,136.139 148.247,0 97.784,55.572 97.784,33.139 60.784,33.139 
		60.784,96.454 25.201,136.139 48.144,136.139 	"></polygon>
      <path d="M259.083,214.931c-5.494,0-12.89,2.44-22.289,8.901c-17.182,11.811-38.215,17.012-57.433,17.012
		c-15.623,0-30.045-3.435-40.23-9.546c-5.046-3.028-5.031-4.039-2.104-4.039c5.878,0,23.504,4.079,35.449,4.079
		c5.878,0,10.379-0.987,11.432-3.934c4.867-13.628-14.001-18.016-33.73-26c-14.444-5.848-32.073-10.262-48.861-10.263
		c-6.999,0-13.914,0.767-20.332,2.517c-29.141,7.945-50.199,13.93-56.199,15.873v76.48c12-4.413,25.9-8.642,33.81-8.642
		c14.516,0,73.253,18.726,106.51,18.726c4.658,0,8.829-0.367,12.298-1.204c28.227-6.814,77.232-46.725,90.533-60.351
		C274.323,227.998,271.797,214.931,259.083,214.931z"></path>
    </g>
    <g></g>
    <g></g>
    <g></g>
    <g></g>
    <g></g>
    <g></g>
    <g></g>
    <g></g>
    <g></g>
    <g></g>
    <g></g>
    <g></g>
    <g></g>
    <g></g>
    <g></g>
  </symbol>
  <symbol version="1.1" id="airplane-svgrepo-com" xmlns="http://www.w3.org/2000/svg" xmlns:xlink="http://www.w3.org/1999/xlink" x="0px" y="0px" xml:space="preserve" viewBox="0 0 66.275 66.275">
    <g>
      <path d="M66.274,9.119c0.001-2.436-0.947-4.726-2.67-6.448C61.881,0.949,59.591,0,57.155,0s-4.726,0.949-6.506,2.73L39.876,14.107
		L9.784,6.464c-1.025-0.26-2.112,0.038-2.859,0.787l-4.731,4.731c-0.649,0.648-0.965,1.559-0.858,2.47
		c0.106,0.911,0.624,1.724,1.405,2.205l21.922,13.517L12.997,42.497L2.869,42.941c-1.188,0.052-2.233,0.802-2.665,1.91
		c-0.431,1.108-0.166,2.367,0.675,3.208l17.337,17.337c0.573,0.573,1.34,0.879,2.122,0.879c0.365,0,0.733-0.066,1.086-0.204
		c1.108-0.431,1.858-1.476,1.91-2.664l0.446-10.132l12.368-11.71l13.466,21.964c0.48,0.783,1.293,1.303,2.205,1.411
		c0.914,0.105,1.824-0.208,2.474-0.858l4.731-4.731c0.744-0.743,1.044-1.822,0.791-2.844l-7.507-30.245l11.294-10.695
		C65.324,13.845,66.274,11.555,66.274,9.119z M59.418,11.267L46.912,23.109c-0.785,0.743-1.109,1.852-0.85,2.901l7.52,30.297
		L52.74,57.15L39.592,35.704c-0.123-0.2-0.27-0.387-0.437-0.553l-0.349-0.349c-0.585-0.585-1.353-0.879-2.121-0.879
		c-0.741,0-1.483,0.273-2.063,0.821L18.993,49.547c0.03-0.03,0.061-0.06,0.066-0.064c-0.087,0.072-0.174,0.145-0.259,0.224
		c-0.58,0.536-0.925,1.28-0.96,2.07l-0.201,4.559l-7.698-7.698l4.554-0.2c0.795-0.035,1.544-0.385,2.082-0.972
		c0.069-0.075,0.133-0.152,0.214-0.251L31.527,31.65c1.118-1.18,1.092-3.035-0.057-4.184l-0.126-0.126
		c-0.165-0.165-0.348-0.31-0.546-0.432L9.119,13.541l0.842-0.842l30.145,7.656c1.052,0.266,2.169-0.056,2.917-0.845L54.949,6.912
		c1.18-1.18,3.234-1.178,4.412,0c0.589,0.589,0.913,1.372,0.913,2.205S59.949,10.734,59.418,11.267z"></path>
    </g>
    <g></g>
    <g></g>
    <g></g>
    <g></g>
    <g></g>
    <g></g>
    <g></g>
    <g></g>
    <g></g>
    <g></g>
    <g></g>
    <g></g>
    <g></g>
    <g></g>
    <g></g>
  </symbol>
</svg>
<svg class="icon">
  <use xlink:href="#star-svgrepo-com"></use>
</svg><svg class="icon">
  <use xlink:href="#magnifying-glass-svgrepo-com"></use>
</svg><svg class="icon">
  <use xlink:href="#location-svgrepo-com"></use>
</svg><svg class="icon">
  <use xlink:href="#chat-svgrepo-com"></use>
</svg><svg class="icon">
  <use xlink:href="#key-svgrepo-com"></use>
</svg><svg class="icon">
  <use xlink:href="#right-svgrepo-com"></use>
</svg><svg class="icon">
  <use xlink:href="#banner-arrow-up-svgrepo-com"></use>
</svg><svg class="icon">
  <use xlink:href="#house-svgrepo-com"></use>
</svg><svg class="icon">
  <use xlink:href="#airplane-svgrepo-com"></use>
</svg>